{"title":"This is the End 2013 BRRip 720p x264 AAC - PRiSTiNE [P2PDL]","uid":8920098,"size":633320890,"categoryP":"video","categoryS":"hd___movies","magnet":"?xt=urn:btih:80f03f8f7e9ee734b5b92c3eacdf6aa077b7939d&amp;dn=This+is+the+End+2013+BRRip+720p+x264+AAC+-+PRiSTiNE+%5BP2PDL%5D&amp;tr=udp%3A%2F%2Ftracker.openbittorrent.com%3A80&amp;tr=udp%3A%2F%2Fopen.demonii.com%3A1337&amp;tr=udp%3A%2F%2Ftracker.coppersurfer.tk%3A6969&amp;tr=udp%3A%2F%2Fexodus.desync.com%3A6969","seeders":3,"leechers":0,"uploader":"ValidusVyto","files":-1,"time":1379234025,"description":"_______ Visit us at our Semi Public Bittorrent Community ________\n  &lt;a href=&quot;\nhttp://p2pdl.com&quot; rel=&quot;nofollow&quot; target=&quot;_NEW&quot;&gt;\nhttp://p2pdl.com&lt;/a&gt;  _____________________________ &lt;a href=&quot; http://p2pdl.com&quot; rel=&quot;nofollow&quot; target=&quot;_NEW&quot;&gt; http://p2pdl.com&lt;/a&gt;\n\n\n\nThis is the End 2013 BRRip 720p x264 AAC - PRiSTiNE\n\n\nGenre: Comedy | Fantasy \nPlot: While attending a party at James Franco's house, Seth Rogen, Jay Baruchel and\nmany other celebrities are faced with the apocalypse.\nDirector: Evan Goldberg, Seth Rogen.\nStars: James Franco, Jonah Hill, Seth Rogen.\nRated: R for crude and sexual content throughout, brief graphic nudity, pervasive\nlanguage, drug use and some violence.\n\n\nIMDb: &lt;a href=&quot;\nhttp://www.imdb.com/title/tt1245492/&quot; rel=&quot;nofollow&quot; target=&quot;_NEW&quot;&gt;\nhttp://www.imdb.com/title/tt1245492/&lt;/a&gt;\n\n\nFormat                         : MPEG-4\nFile size                      : 596 MiB\nDuration                       : 1h 46mn\nOverall bit rate mode          : Variable\nOverall bit rate               : 780 Kbps\n\nVideo\nFormat                         : AVC\nBit rate                       : 698 Kbps\nWidth                          : 1 280 pixels\nHeight                         : 536 pixels\nDisplay aspect ratio           : 2.40:1\nFrame rate mode                : Constant\nFrame rate                     : 23.976 fps\nBit depth                      : 10 bits\nStream size                    : 532 MiB (89%)\nWriting library                : x264 core 138 r2358\n\nAudio\nFormat                         : AAC\nBit rate mode                  : Variable\nBit rate                       : 80.0 Kbps\nChannel(s)                     : 2 channels\nChannel positions              : Front: L R\nSampling rate                  : 48.0 KHz\nStream size                    : 61.1 MiB (10%)\n\nSubtitle                       : Yes(English)\n &lt;a href=&quot;\nhttp://someimage.com/HfwcVOP&quot; rel=&quot;nofollow&quot; target=&quot;_NEW&quot;&gt;\nhttp://someimage.com/HfwcVOP&lt;/a&gt; &lt;a href=&quot;\nhttp://someimage.com/LNEbem8&quot; rel=&quot;nofollow&quot; target=&quot;_NEW&quot;&gt;\nhttp://someimage.com/LNEbem8&lt;/a&gt; &lt;a href=&quot;\nhttp://someimage.com/PaUj88l&quot; rel=&quot;nofollow&quot; target=&quot;_NEW&quot;&gt;\nhttp://someimage.com/PaUj88l&lt;/a&gt; &lt;a href=&quot;\nhttp://someimage.com/ljrwGtj&quot; rel=&quot;nofollow&quot; target=&quot;_NEW&quot;&gt;\nhttp://someimage.com/ljrwGtj&lt;/a&gt; &lt;a href=&quot;\nhttp://someimage.com/8kIGq5I&quot; rel=&quot;nofollow&quot; target=&quot;_NEW&quot;&gt;\nhttp://someimage.com/8kIGq5I&lt;/a&gt; &lt;a href=&quot;\nhttp://someimage.com/bJnMnSN&quot; rel=&quot;nofollow&quot; target=&quot;_NEW&quot;&gt;\nhttp://someimage.com/bJnMnSN&lt;/a&gt; &lt;a href=&quot;\nhttp://someimage.com/r4L74wg&quot; rel=&quot;nofollow&quot; target=&quot;_NEW&quot;&gt;\nhttp://someimage.com/r4L74wg&lt;/a&gt; &lt;a href=&quot;\nhttp://someimage.com/2vseEKA&quot; rel=&quot;nofollow&quot; target=&quot;_NEW&quot;&gt;\nhttp://someimage.com/2vseEKA&lt;/a&gt;\n\n\n----------------------------------------------------------------------------------------------------\n\n\nEncoded using revolutionary 10bit encoding, which enables us to provide you more crispier \nand sharper images at small sizes, just make sure you follow our instructions without a fault.\nRecommend to you to use latest version of VLC player. Install K-Lite Codec Pack or shark007 codecs\nin case of any kind of problem in playback (For non-VLC Media Player users). Alternatively, install\nCore AVC codecs, the fastest decoder that there is coupled with Community Center Codec Pack and play\non Windows Media Player Classic. Check sample to be sure.\nEnjoy!\n\nEncoder Notes:Looking For Early Access To Anything You Can Provide DVDScr, R5, DVDR, BluRay, Direct\nAudio, Music Releases and Seedboxes. We require dedicated servers, so as to do more \nand fast releases of movies.\nIf You Got anything to offer please contact us at &quot;&lt;a class=&quot;__cf_email__&quot; href=&quot;/cdn-cgi/l/email-protection&quot; data-cfemail=&quot;e2929085a28a97918acc818d8f&quot;&gt;[email&amp;#160;protected]&lt;/a&gt;&lt;script cf-hash='f9e31' type=&quot;text/javascript&quot;&gt;\n/* &lt;![CDATA[ */!function(){try{var t=&quot;currentScript&quot;in document?document.currentScript:function(){for(var t=document.getElementsByTagName(&quot;script&quot;),e=t.length;e--;)if(t[e].getAttribute(&quot;cf-hash&quot;))return t[e]}();if(t&amp;&amp;t.previousSibling){var e,r,n,i,c=t.previousSibling,a=c.getAttribute(&quot;data-cfemail&quot;);if(a){for(e=&quot;&quot;,r=parseInt(a.substr(0,2),16),n=2;a.length-n;n+=2)i=parseInt(a.substr(n,2),16)^r,e+=String.fromCharCode(i);e=document.createTextNode(e),c.parentNode.replaceChild(e,c)}}}catch(u){}}();/* ]]&gt; */&lt;/script&gt;&quot;.\n\nFace book Fan Page:  \nSearch P2PDL on FB and hit like!!!\n\nFor more of our team uploads visit @                                        &lt;a href=&quot;\nhttp://thepiratebay.se/user/vitamin_x&quot; rel=&quot;nofollow&quot; target=&quot;_NEW&quot;&gt;\nhttp://thepiratebay.se/user/vitamin_x&lt;/a&gt;\t","torrent":{"xt":"urn:btih:80f03f8f7e9ee734b5b92c3eacdf6aa077b7939d","amp;dn":"This+is+the+End+2013+BRRip+720p+x264+AAC+-+PRiSTiNE+%5BP2PDL%5D","amp;tr":["udp%3A%2F%2Ftracker.openbittorrent.com%3A80","udp%3A%2F%2Fopen.demonii.com%3A1337","udp%3A%2F%2Ftracker.coppersurfer.tk%3A6969","udp%3A%2F%2Fexodus.desync.com%3A6969"],"infoHash":"80f03f8f7e9ee734b5b92c3eacdf6aa077b7939d","infoHashBuffer":{"type":"Buffer","data":[128,240,63,143,126,158,231,52,181,185,44,62,172,223,106,160,119,183,147,157]},"announce":[],"urlList":[]}}